# xmcd
#
# Track frame offsets:
#	182
#	14150
#	29555
#	50390
#	63610
#	82550
#	101340
#	119557
#	137467
#	152855
#	168342
#	181772
#	198137
#	218080
#	232340
#	247980
#	268015
#	280437
#	306975
#
# Disc length: 4309 seconds
#
# Revision: 0
# Processed by: cddbd v1.5.2PL0 Copyright (c) Steve Scherf et al.
# Submitted via: audiograbber 1.83.01
#
DISCID=0d10d313
DTITLE=Varios - 100 baladas 100 cd5
DYEAR=1900
DGENRE=balada
TTITLE0=Alguien canto - Matt Monro
TTITLE1=Murio la flor - Los Angeles negros
TTITLE2=Y te vas - Jose luis perales
TTITLE3=Sensacional eres tu - Los blue caps
TTITLE4=Amor mio - Raphael
TTITLE5=Por culpa de una noche enamorada - Juan Carlos Calderon
TTITLE6=Mi rol - Adamo
TTITLE7=Si me olvidas te olvido - Gian Franco Pagliaro
TTITLE8=A tu recuerdo - Los Angeles negros
TTITLE9=Cuando queras donde quieras - Dyango
TTITLE10=Piensa en mi - Lorenzo Santamaria
TTITLE11=La pobre mia - Los golpes
TTITLE12=Ay amor - Myriam Hernandez
TTITLE13=En un rincon del alma - Alberto Cortez
TTITLE14=Para amarnos mas - Mijares
TTITLE15=Con tu amor - Pandora
TTITLE16=Esta dormida - Yaco Monti
TTITLE17=Madrigal - Jose Feliciano
TTITLE18=Palabra de honor - Luis Miguel
EXTD=100 baladas 100 collection from EMI
EXTT0=
EXTT1=
EXTT2=
EXTT3=
EXTT4=
EXTT5=
EXTT6=
EXTT7=
EXTT8=
EXTT9=
EXTT10=
EXTT11=
EXTT12=
EXTT13=
EXTT14=
EXTT15=
EXTT16=
EXTT17=
EXTT18=
PLAYORDER=
